<svg xmlns="http://www.w3.org/2000/svg" xmlns:xlink="http://www.w3.org/1999/xlink" width="982" height="1080" viewBox="0 0 982 1080">
  <defs>
    <clipPath id="clip-Web_1920_1">
      <rect width="982" height="1080"/>
    </clipPath>
  </defs>
  <g id="Web_1920_1" data-name="Web 1920 – 1" clip-path="url(#clip-Web_1920_1)">
    <rect width="982" height="1080" fill="#fff"/>
    <path id="indian-map" d="M949.8,330.362c-2.479-5.695-7.636-17.544-19.581-24.934-10.16-6.285-19.356-5.919-31-5.457-3.244.13-6.6.263-10.364.281a92.853,92.853,0,0,1-30.108-3.828,44.6,44.6,0,0,0-19.233-2.09c-21.879,2.558-32.318,18.5-42.413,33.911-9.841,15.026-20.018,30.563-41.628,38.209-1.673.592-41.257,14.3-64.33-3.444a54.641,54.641,0,0,1-13.189-16.185c-4.035-6.637-8.213-13.5-16.532-13.052-10.115.546-12.657,11.224-15.118,21.551-2.411,10.122-5.412,22.72-14.523,29.21-16.5,11.75-51.417,2.183-74.316-13.418a69.244,69.244,0,0,1-14.109-12.6,58.7,58.7,0,0,0-19.064-15.08c-13.355-6.895-22.522-7.319-32.226-7.767a91.453,91.453,0,0,1-25.844-4.1c-19.538-6.121-49.045-21.745-50.254-39.706-.392-5.817,2.233-9.65,6.548-15.423,4.33-5.792,9.238-12.356,9.106-22.2-.286-21.491-28.82-35.283-54-47.451-10.64-5.143-30.338-14.664-31.343-19.221,1.321-1.475,7.112-3.555,10.629-4.818,9.871-3.545,23.391-8.4,27.473-21.333,3.139-9.946-1.566-17.526-5.348-23.618-3.047-4.909-5.925-9.546-5.817-15.759.215-12.305,11.847-21.135,23.1-29.673,10.761-8.168,21.889-16.615,19.413-28.6-1.871-9.058-11.452-16.665-26.977-21.42a109.326,109.326,0,0,0-43.06-3.905,82.82,82.82,0,0,0-27.919,8.437c-6.563,3.063-10.528,4.915-17,3.713-9.192-1.7-13.459-7.86-19.365-16.384-5.308-7.663-11.324-16.348-22.2-23.235-27.728-17.571-71.47-11.969-98.548,2.22-8.966,4.7-19.741,12.392-20.146,22.356-.481,11.806,12.9,18.527,27.071,25.642,13.234,6.645,28.234,14.177,28.372,23.6.059,4.058-2.544,6.8-7.15,11.287a69.756,69.756,0,0,0-5.437,5.726,31.5,31.5,0,0,0-5.519,13.043l-.184.782c-3.426,14.159,8.388,23.949,20.9,34.313,11.459,9.5,24.447,20.26,28.986,35.929,5.08,17.536.031,41.713-11.492,55.038a56.977,56.977,0,0,1-4.626,4.66,49.421,49.421,0,0,0-10.017,11.99,57.366,57.366,0,0,0-7.729,22.844c-.791,5-1.362,8.613-4.122,12.363-2.429,3.3-4.3,3.826-9.3,5.229a79.61,79.61,0,0,0-19,7.644,71.074,71.074,0,0,0-25.225,23.55c-4.559,6.374-7.57,10.585-15.025,12.843a30.712,30.712,0,0,1-14.925.43c-6.22-.927-13.27-1.98-21.545,3.417-10.62,6.922-19.362,22.559-15.609,36.746,2.54,9.6,9.593,13.455,15.261,16.553,5.064,2.767,9.847,5.382,13.279,12.1a33.667,33.667,0,0,1,3.066,10.517c.992,5.734,2.116,12.234,8.576,19.394a45.314,45.314,0,0,0,5.253,4.9,17.22,17.22,0,0,1,1.679,1.473,14.7,14.7,0,0,1-3.542,9.567,8.642,8.642,0,0,1-5.824,3.649c-14.938.211-30.092.151-45.036-.172-9.451-.207-19.018-.521-28.432-.938a12.887,12.887,0,0,0-12.573,17.573A80.056,80.056,0,0,0,95.7,529.086a25.747,25.747,0,0,1-4.171,3.094A29.2,29.2,0,0,1,68.8,534.75a12.862,12.862,0,0,0-14.967,17.834c11.831,25.375,37.186,41.276,61.643,38.628a54.8,54.8,0,0,0,30.873-14.492c.049,2.425.162,4.948.283,7.647a200.493,200.493,0,0,1-.4,30.306,171.782,171.782,0,0,0,2.6,44.341c3.7,19.1,10.424,29.471,16.358,38.619,5.554,8.561,10.35,15.953,12.933,29.979a48.3,48.3,0,0,1-.633,23.519,48.477,48.477,0,0,0-.051,26.765c4.186,16.64,11.809,24.367,19.88,32.548,7.325,7.425,14.9,15.1,21.954,31.556a93.246,93.246,0,0,1,6.619,22.728,67.478,67.478,0,0,0,10.713,28.2,119.843,119.843,0,0,0,10.857,14.258,199.608,199.608,0,0,1,15.237,19.931,173.788,173.788,0,0,1,9.652,16.135c2.021,3.721,4.111,7.568,7.149,12.371,28.4,44.9,39.279,59.017,52.32,59.017a20.4,20.4,0,0,0,2.881-.217c28.345-4.133,42.3-70.47,42.442-71.14.552-2.688,1-5.287,1.444-7.829,1.657-9.579,2.967-17.145,9.048-25.839a55.173,55.173,0,0,1,8.341-9.284c4.021-3.772,8.178-7.673,9.738-15.241,1.776-8.617-1.266-14.748-3.949-20.156a35.766,35.766,0,0,1-4.565-14.318c-.432-5.763.886-8.843,3.277-14.436a119.441,119.441,0,0,0,4.688-12.4c6-19.4,3.881-33.293,2.334-43.439-1.361-8.925-1.821-13.039,1.541-17.046,3.341-3.98,7.618-4.35,15.515-4.7,9.356-.42,21-.944,32.91-11.136A43.317,43.317,0,0,0,470.1,729.374,40.481,40.481,0,0,1,480.953,713.4a44.635,44.635,0,0,1,16.527-9.937,64.008,64.008,0,0,0,22.3-13.478,50.884,50.884,0,0,0,12.5-16.214,42.813,42.813,0,0,1,10.052-13.3,76.9,76.9,0,0,1,17.9-12.6,66.788,66.788,0,0,0,21.288-16.555,47.057,47.057,0,0,0,8.088-13.029,108.329,108.329,0,0,1,6.046-11.655c18.058-30.5,34.587-45.97,49.127-45.986h.02c6.643,0,11.138,3.452,15.486,6.79,4.409,3.384,10.442,8.021,17.265,3.86,10.531-6.428,7.776-22.24,1.119-60.439-2.626-15.069-5.893-33.824-9.163-56.5-1.275-8.843-4.136-28.694-2.241-34.427,1.257.848,3.041,2.32,4.451,3.485a76.646,76.646,0,0,0,27.967,15.943,86.484,86.484,0,0,0,25.652,3.152c9.346.1,17.417.188,27.9,5.912a22.154,22.154,0,0,1,7.193,5.3c-.5,1.318-3.893,4.257-6.176,6.233-5.824,5.041-13.8,11.943-18.294,23.407-4.356,11.111-6.105,29.851,3.972,34.785,8.591,4.207,17.233-4.011,26.389-12.71.205-.2.419-.4.638-.606-2.19,8.625-3.916,19.769,1,30.741a41.844,41.844,0,0,0,22.45,21.108,18.514,18.514,0,0,0,14.615-.058c5.718-2.833,9.189-9.372,10-34.42a167.643,167.643,0,0,0-1.459-31.517c-.7-5.1-.93-6.817.257-10.289,2.572-7.524,7.661-10.3,15.364-14.511,8.248-4.507,18.514-10.115,27.009-23.54a44.349,44.349,0,0,0,7.3-25.371,28.148,28.148,0,0,1,1.066-8.491,20.122,20.122,0,0,1,3.266-5.724l.365-.5c2.073-2.85,21.15-27.9,52.6-29.568a73.537,73.537,0,0,1,12.611.53c6.083.65,12.373,1.329,17.6-4.193C958.106,361.523,957.7,348.512,949.8,330.362ZM940.927,359.5c-.464.488-2.588.3-6.037-.07a87.649,87.649,0,0,0-14.829-.59c-37.864,2.011-60.614,31.867-63.084,35.265l-.343.47a33.056,33.056,0,0,0-5.2,9.451,40.871,40.871,0,0,0-1.8,12.539,30.78,30.78,0,0,1-5.156,18.366c-6.575,10.39-14.385,14.656-21.938,18.782-8.615,4.706-17.522,9.573-21.84,22.2-2.25,6.579-1.673,10.8-.875,16.651a153.3,153.3,0,0,1,1.339,29.193c-.518,15.964-2.123,21.1-2.775,22.554-3.183.36-13.446-4.76-17.77-14.409-3.926-8.758-1.011-19.032,1.117-26.534,1.916-6.748,4.086-14.4-2.333-18.3-7.177-4.375-14.34,2.436-22.637,10.318a100.236,100.236,0,0,1-10.288,8.932,35.429,35.429,0,0,1,2.4-15.889c3.244-8.276,9.2-13.433,14.457-17.983,5.985-5.178,12.174-10.535,10.851-19.041-.843-5.4-5.52-10.361-14.3-15.156-13.518-7.38-24.131-7.495-34.394-7.6a73.03,73.03,0,0,1-21.811-2.566,62.682,62.682,0,0,1-23.129-13.36c-5.547-4.578-11.835-9.766-19.327-5.995-11.173,5.629-9.346,22.521-5.442,49.614,3.3,22.883,6.586,41.748,9.228,56.906,3.4,19.531,6.639,38.1,5.61,44.62-.631-.463-1.3-.977-1.881-1.422-5.011-3.847-12.579-9.66-23.934-9.66h-.036c-29.809.033-53.321,39.741-61.047,52.789a122.155,122.155,0,0,0-6.732,12.965,33.968,33.968,0,0,1-6.036,9.8c-6.061,7.131-11.072,9.892-17.416,13.391a89.732,89.732,0,0,0-20.764,14.7A56.333,56.333,0,0,0,520,667.339a37.108,37.108,0,0,1-9.538,12.377A50.766,50.766,0,0,1,492.4,690.56a58.27,58.27,0,0,0-20.912,12.706,54.12,54.12,0,0,0-14.135,20.642,29.555,29.555,0,0,1-8.908,13c-8.283,7.088-16.167,7.443-24.513,7.818-8.485.381-18.1.813-25.516,9.645-7.539,8.981-6.126,18.246-4.631,28.055,1.494,9.793,3.186,20.893-1.872,37.249a106.381,106.381,0,0,1-4.19,11.049c-2.7,6.322-5.04,11.785-4.356,20.924a49.067,49.067,0,0,0,5.972,19.448c2.431,4.9,3.565,7.423,2.789,11.189-.641,3.1-1.951,4.462-5.646,7.928a68.629,68.629,0,0,0-10.217,11.45c-7.853,11.231-9.629,21.495-11.347,31.422-.416,2.4-.84,4.861-1.362,7.4C357.979,967.6,343.6,999.1,332.7,1000.694c-6.373.842-19.491-17.731-41.478-52.49-2.792-4.414-4.683-7.893-6.684-11.578a187.9,187.9,0,0,0-10.342-17.271,211.275,211.275,0,0,0-16.171-21.16,105.636,105.636,0,0,1-9.726-12.729,53.825,53.825,0,0,1-8.764-23.239,106.476,106.476,0,0,0-7.515-25.694A105.214,105.214,0,0,0,207.19,800.7c-7.57-7.675-13.04-13.219-16.3-26.192a35.4,35.4,0,0,1,.095-20.17,61.447,61.447,0,0,0,.779-29.241c-3.084-16.744-9.109-26.033-14.937-35.016-5.756-8.872-11.192-17.251-14.378-33.706a160.519,160.519,0,0,1-2.407-40.386,215.353,215.353,0,0,0,.449-32.245,130.519,130.519,0,0,1-.17-13.691,10.746,10.746,0,0,0-6.644-10.738,11,11,0,0,0-4.267-.871,10.8,10.8,0,0,0-8.082,3.671c-5.576,6.241-14.845,13.96-27.33,15.3-18.048,1.927-36.941-9.805-46.633-28.746A41.176,41.176,0,0,0,115.9,523.59a6.936,6.936,0,0,0-7.694-9.439A67.826,67.826,0,0,1,60.5,505.158a67.111,67.111,0,0,1-26.372-31.579c9.027.387,18.177.683,27.223.881,15.11.329,30.429.389,45.533.176a21.663,21.663,0,0,0,16.453-8.845c5.076-6.336,7.606-14.805,6.3-21.077a15.726,15.726,0,0,0-6.455-9.358,31.973,31.973,0,0,1-3.757-3.471c-3.773-4.182-4.343-7.477-5.205-12.464a46.677,46.677,0,0,0-4.383-14.467C104.451,394.43,96.591,390.134,90.852,387c-5.194-2.839-7.53-4.247-8.5-7.93-1.829-6.908,2.738-16.992,9.773-21.578,3.7-2.415,6.333-2.152,11.922-1.316a43.96,43.96,0,0,0,20.995-.875c11.972-3.626,17.215-10.958,22.287-18.049,4.658-6.514,9.475-13.25,20.7-19.506a65.66,65.66,0,0,1,16-6.4c5.9-1.655,11.464-3.218,16.72-10.362,4.76-6.469,5.721-12.543,6.65-18.416a43.654,43.654,0,0,1,5.91-17.855,36.255,36.255,0,0,1,7.577-8.985,69.918,69.918,0,0,0,5.676-5.747c14.763-17.071,20.787-45.659,14.324-67.97-5.726-19.767-21.1-32.51-33.458-42.75-10.985-9.1-17.56-15.016-16.264-20.371l.214-.91a21.1,21.1,0,0,1,2.738-7.39A58.987,58.987,0,0,1,198.494,106c5.117-4.989,11.486-11.2,11.336-21.422-.26-17.842-20.086-27.8-36.017-35.8-5.851-2.937-19.552-9.819-19.436-12.681.033-.8,2.4-5.225,12.725-10.635,20.248-10.606,59.908-18.49,84.687-2.79,8.5,5.383,13.439,12.518,18.219,19.419,6.6,9.528,13.428,19.382,28.24,22.124,10.846,2.016,17.911-1.291,25.394-4.784a69.856,69.856,0,0,1,23.65-7.228c26.127-3.028,53.283,6.744,54.854,14.353.707,3.423-7.566,9.7-14.215,14.749-12.584,9.552-28.246,21.441-28.578,40.48-.179,10.3,4.3,17.517,7.9,23.316,3.721,5.995,5.022,8.592,3.9,12.127-2.012,6.376-10.614,9.466-18.933,12.454-9.073,3.259-18.455,6.63-19.711,15.841-1.9,13.935,16.183,22.675,39.077,33.74,19.41,9.381,45.992,22.23,46.164,35.149.065,4.886-2.369,8.393-6.346,13.712-4.471,5.979-10.035,13.422-9.279,24.661,2.221,33,54.045,50.162,59.947,52.01a104.429,104.429,0,0,0,29.349,4.72c8.851.41,15.843.733,26.505,6.239a45.214,45.214,0,0,1,15.1,12.019,82.124,82.124,0,0,0,16.621,14.8,132.958,132.958,0,0,0,43.889,19.007c19.094,4.2,35.1,2.214,46.285-5.755,13.35-9.509,17.176-25.568,19.968-37.293a80.068,80.068,0,0,1,2.781-9.925c1.064,1.372,2.436,3.628,3.522,5.414A67.968,67.968,0,0,0,682.686,374c28.489,21.913,72.489,7.266,77.413,5.527,26.022-9.207,38.02-27.525,48.6-43.687,9.488-14.486,16.981-25.926,32.421-27.732a31.2,31.2,0,0,1,13.9,1.672,110.183,110.183,0,0,0,33.9,4.338c4.009-.019,7.644-.162,10.85-.29,10.348-.412,16.6-.662,23.151,3.392,8.256,5.107,11.952,13.6,14.161,18.674C943.606,350.886,942.45,357.891,940.927,359.5Z" transform="translate(3.956 34.608)"/>
    <path id="map-pin-fill" d="M51.928,8.912A30.416,30.416,0,0,0,8.911,51.926s21.51,21.081,21.51,45.417c0-24.336,21.507-45.417,21.507-45.417a30.4,30.4,0,0,0,0-43.014ZM30.421,42.587A12.168,12.168,0,1,1,42.589,30.419,12.161,12.161,0,0,1,30.421,42.587Z" transform="translate(277.001 242)" fill="#8cc63f"/>
    <path id="map-pin-fill-2" data-name="map-pin-fill" d="M51.928,8.912A30.416,30.416,0,0,0,8.911,51.926s21.51,21.081,21.51,45.417c0-24.336,21.507-45.417,21.507-45.417a30.4,30.4,0,0,0,0-43.014ZM30.421,42.587A12.168,12.168,0,1,1,42.589,30.419,12.161,12.161,0,0,1,30.421,42.587Z" transform="translate(149.08 532.158)" fill="#007bff"/>
    <path id="map-pin-fill-3" data-name="map-pin-fill" d="M51.928,8.912A30.416,30.416,0,0,0,8.911,51.926s21.51,21.081,21.51,45.417c0-24.336,21.507-45.417,21.507-45.417a30.4,30.4,0,0,0,0-43.014ZM30.421,42.587A12.168,12.168,0,1,1,42.589,30.419,12.161,12.161,0,0,1,30.421,42.587Z" transform="translate(284.001 753)" fill="#ffc107"/>
    <line id="Line_1" data-name="Line 1" y1="136" x2="128" transform="translate(314.5 203.5)" fill="none" stroke="#147bfc" stroke-width="5"/>
    <line id="Line_2" data-name="Line 2" x2="55.5" transform="translate(442 203.5)" fill="none" stroke="#147bfc" stroke-width="5"/>
    <text id="Delhi" transform="translate(511 219)" fill="#535353" font-size="40" font-family="HelveticaNeue-Bold, Helvetica Neue" font-weight="700"><tspan x="0" y="0">Delhi</tspan></text>
    <line id="Line_3" data-name="Line 3" y1="64" x2="75" transform="translate(98.5 625.5)" fill="none" stroke="#147bfc" stroke-width="5"/>
    <line id="Line_4" data-name="Line 4" y1="34" x2="1" transform="translate(98.5 687.5)" fill="none" stroke="#147bfc" stroke-width="5"/>
    <text id="Mumbai" transform="translate(10 763)" fill="#535353" font-size="40" font-family="HelveticaNeue-Bold, Helvetica Neue" font-weight="700"><tspan x="0" y="0">Mumbai</tspan></text>
    <line id="Line_5" data-name="Line 5" x2="183" y2="0.158" transform="translate(314.5 850.342)" fill="none" stroke="#147bfc" stroke-width="5"/>
    <text id="Bangalore" transform="translate(511 865)" fill="#535353" font-size="40" font-family="HelveticaNeue-Bold, Helvetica Neue" font-weight="700"><tspan x="0" y="0">Bangalore</tspan></text>
    <path id="Polygon_1" data-name="Polygon 1" d="M10.639,0,21.278,17.159H0Z" transform="matrix(0.848, -0.53, 0.53, 0.848, 477.731, 199.113)" fill="#147bfc"/>
    <path id="Polygon_2" data-name="Polygon 2" d="M10.639,0,21.278,17.159H0Z" transform="translate(83.819 726.424) rotate(-60)" fill="#147bfc"/>
    <path id="Polygon_3" data-name="Polygon 3" d="M10.639,0,21.278,17.159H0Z" transform="matrix(0.848, -0.53, 0.53, 0.848, 477.731, 846.362)" fill="#147bfc"/>
    <text id="_Coming_Soon_" data-name="(Coming Soon)" transform="translate(509 903)" fill="#535353" font-size="30" font-family="HelveticaNeue, Helvetica Neue"><tspan x="0" y="0">(Coming Soon)</tspan></text>
  </g>
</svg>
