<svg xmlns="http://www.w3.org/2000/svg" width="709" height="709" viewBox="0 0 709 709">
  <g id="process" transform="translate(0.5 0.5)">
    <path id="Path_12" data-name="Path 12" d="M354,0C549.509,0,708,158.491,708,354S549.509,708,354,708,0,549.509,0,354C0,233.176,60.532,126.489,153.126,62.472A352.177,352.177,0,0,1,354,0Z" fill="none" stroke="#707070" stroke-linejoin="round" stroke-width="1" opacity="0.15"/>
    <ellipse id="Ellipse_2" data-name="Ellipse 2" cx="135" cy="136.5" rx="135" ry="136.5" transform="translate(219 218)" fill="none" stroke="#707070" stroke-linejoin="round" stroke-width="3"/>
    <path id="Path_11" data-name="Path 11" d="M244.5,0C379.534,0,489,109.466,489,244.5S379.534,489,244.5,489,0,379.534,0,244.5,109.466,0,244.5,0Z" transform="translate(110 110)" fill="none" stroke="#707070" stroke-linejoin="round" stroke-width="1" opacity="0.404"/>
    <circle id="Ellipse_4" data-name="Ellipse 4" cx="179.5" cy="179.5" r="179.5" transform="translate(175 175)" fill="none" stroke="#707070" stroke-linejoin="round" stroke-width="1" opacity="0.5"/>
    <g id="Group_13" data-name="Group 13" transform="translate(15 174.611)">
      <g id="Group_2" data-name="Group 2" transform="translate(0 243)">
        <path id="Path_1" data-name="Path 1" d="M201.769,53.322,161.626,93.465a20,20,0,0,1-14.142,5.858H22.264a10,10,0,0,0-8.253,4.352L.209,123.842" fill="none" stroke="#707070" stroke-linejoin="round" stroke-width="1.5" fill-rule="evenodd"/>
        <path id="Path_2" data-name="Path 2" d="M201.549,53.556l29.718-29.718" fill="none" stroke="#707070" stroke-width="1.5" fill-rule="evenodd"/>
        <g id="Group_1" data-name="Group 1" transform="translate(231.5 0.166) rotate(45)">
          <rect id="Rectangle_1" data-name="Rectangle 1" width="23" height="23" transform="translate(16.5 0.237) rotate(45)" fill="#fff" opacity="0.03"/>
          <rect id="Rectangle_2" data-name="Rectangle 2" width="11" height="11" transform="translate(16.5 8.722) rotate(45)" fill="#fff" opacity="0.1"/>
          <rect id="Rectangle_3" data-name="Rectangle 3" width="5" height="5" transform="translate(16.5 12.965) rotate(45)" fill="#988bff"/>
        </g>
      </g>
      <g id="Group_4" data-name="Group 4" transform="translate(1.087 112.556)">
        <path id="Path_3" data-name="Path 3" d="M208.776,17l-68.739.17H22.741a11.023,11.023,0,0,0-9.111,4.637L0,41.68" fill="none" stroke="#707070" stroke-linejoin="round" stroke-width="1.5" fill-rule="evenodd"/>
        <g id="Group_3" data-name="Group 3" transform="translate(192.603 0.237)">
          <rect id="Rectangle_4" data-name="Rectangle 4" width="23" height="23" transform="translate(16.264 0) rotate(45)" fill="#fff" opacity="0.03"/>
          <rect id="Rectangle_5" data-name="Rectangle 5" width="11" height="11" transform="translate(16.264 8.485) rotate(45)" fill="#fff" opacity="0.1"/>
          <rect id="Rectangle_6" data-name="Rectangle 6" width="5" height="5" transform="translate(16.264 12.728) rotate(45)" fill="#988bff"/>
        </g>
      </g>
      <g id="Group_6" data-name="Group 6" transform="translate(1)">
        <path id="Path_4" data-name="Path 4" d="M239.057,81.09,203,46" fill="none" stroke="#707070" stroke-width="1.5" fill-rule="evenodd"/>
        <path id="Path_5" data-name="Path 5" d="M203.156,46.153,163.388,6.268A20,20,0,0,0,149.225.389H21.153a10,10,0,0,0-8.441,4.637L.087,24.9" fill="none" stroke="#707070" stroke-linejoin="round" stroke-width="1.5" fill-rule="evenodd"/>
        <g id="Group_5" data-name="Group 5" transform="translate(231.5 50.165) rotate(45)">
          <rect id="Rectangle_7" data-name="Rectangle 7" width="23" height="23" transform="translate(16.5 0.237) rotate(45)" fill="#fff" opacity="0.03"/>
          <rect id="Rectangle_8" data-name="Rectangle 8" width="11" height="11" transform="translate(16.5 8.722) rotate(45)" fill="#fff" opacity="0.1"/>
          <rect id="Rectangle_9" data-name="Rectangle 9" width="5" height="5" transform="translate(28.521 13.672) rotate(45)" fill="#988bff"/>
        </g>
      </g>
      <g id="Group_8" data-name="Group 8" transform="translate(678.264 243) rotate(180)">
        <path id="Path_6" data-name="Path 6" d="M201.769-53.322,161.626-93.465a20,20,0,0,0-14.142-5.858H22.264a10,10,0,0,1-8.253-4.352L.209-123.842" fill="none" stroke="#707070" stroke-linejoin="round" stroke-width="1.5" fill-rule="evenodd"/>
        <path id="Path_7" data-name="Path 7" d="M201.549-53.556,230.4-24.707" fill="none" stroke="#707070" stroke-width="1.5" fill-rule="evenodd"/>
        <g id="Group_7" data-name="Group 7" transform="translate(208.166 -23.5) rotate(45)">
          <rect id="Rectangle_10" data-name="Rectangle 10" width="23" height="23" transform="translate(0.236 -16.5) rotate(-45)" fill="#fff" opacity="0.03"/>
          <rect id="Rectangle_11" data-name="Rectangle 11" width="11" height="11" transform="translate(8.722 -16.5) rotate(-45)" fill="#fff" opacity="0.1"/>
          <rect id="Rectangle_12" data-name="Rectangle 12" width="5" height="5" transform="translate(12.965 -16.5) rotate(-45)" fill="#988bff"/>
        </g>
      </g>
      <g id="Group_10" data-name="Group 10" transform="translate(655.791 112.556) rotate(180)">
        <path id="Path_8" data-name="Path 8" d="M192.46-17l-62.73-.17H21.067a10,10,0,0,1-8.441-4.637L0-41.68" fill="none" stroke="#707070" stroke-linejoin="round" stroke-width="1.5" fill-rule="evenodd"/>
        <g id="Group_9" data-name="Group 9" transform="translate(177)">
          <rect id="Rectangle_13" data-name="Rectangle 13" width="23" height="23" transform="translate(0.236 -16.5) rotate(-45)" fill="#fff" opacity="0.03"/>
          <rect id="Rectangle_14" data-name="Rectangle 14" width="11" height="11" transform="translate(8.722 -16.5) rotate(-45)" fill="#fff" opacity="0.1"/>
          <rect id="Rectangle_15" data-name="Rectangle 15" width="5" height="5" transform="translate(12.964 -16.5) rotate(-45)" fill="#988bff"/>
        </g>
      </g>
      <g id="Group_12" data-name="Group 12" transform="translate(655) rotate(180)">
        <path id="Path_9" data-name="Path 9" d="M231.359-74.359,203-46" fill="none" stroke="#707070" stroke-width="1.5" fill-rule="evenodd"/>
        <path id="Path_10" data-name="Path 10" d="M203.156-46.153,163.388-6.268A20,20,0,0,1,149.225-.389H21.153a10,10,0,0,1-8.441-4.637L.087-24.9" fill="none" stroke="#707070" stroke-linejoin="round" stroke-width="1.5" fill-rule="evenodd"/>
        <g id="Group_11" data-name="Group 11" transform="translate(231.5 -50.165) rotate(-45)">
          <rect id="Rectangle_16" data-name="Rectangle 16" width="23" height="23" transform="translate(0.236 -16.5) rotate(-45)" fill="#fff" opacity="0.03"/>
          <rect id="Rectangle_17" data-name="Rectangle 17" width="11" height="11" transform="translate(8.722 -16.5) rotate(-45)" fill="#fff" opacity="0.1"/>
          <rect id="Rectangle_18" data-name="Rectangle 18" width="5" height="5" transform="translate(12.965 -16.5) rotate(-45)" fill="#988bff"/>
        </g>
      </g>
      <g id="Group_14" data-name="Group 14" transform="translate(663.791 195.444) rotate(180)">
        <path id="Path_8-2" data-name="Path 8" d="M192.46-17l-62.73-.17H21.067a10,10,0,0,1-8.441-4.637L0-41.68" fill="none" stroke="#707070" stroke-linejoin="round" stroke-width="1.5" fill-rule="evenodd"/>
        <g id="Group_9-2" data-name="Group 9" transform="translate(177)">
          <rect id="Rectangle_13-2" data-name="Rectangle 13" width="23" height="23" transform="translate(0.236 -16.5) rotate(-45)" fill="#fff" opacity="0.03"/>
          <rect id="Rectangle_14-2" data-name="Rectangle 14" width="11" height="11" transform="translate(8.722 -16.5) rotate(-45)" fill="#fff" opacity="0.1"/>
          <rect id="Rectangle_15-2" data-name="Rectangle 15" width="5" height="5" transform="translate(12.964 -16.5) rotate(-45)" fill="#988bff"/>
        </g>
      </g>
      <g id="Group_15" data-name="Group 15" transform="translate(1.087 112.556)">
        <path id="Path_3-2" data-name="Path 3" d="M208.776,17l-68.739.17H22.741a11.023,11.023,0,0,0-9.111,4.637L0,41.68" fill="none" stroke="#707070" stroke-linejoin="round" stroke-width="1.5" fill-rule="evenodd"/>
        <g id="Group_3-2" data-name="Group 3" transform="translate(192.603 0.237)">
          <rect id="Rectangle_4-2" data-name="Rectangle 4" width="23" height="23" transform="translate(16.264 0) rotate(45)" fill="#fff" opacity="0.03"/>
          <rect id="Rectangle_5-2" data-name="Rectangle 5" width="11" height="11" transform="translate(16.264 8.485) rotate(45)" fill="#fff" opacity="0.1"/>
          <rect id="Rectangle_6-2" data-name="Rectangle 6" width="5" height="5" transform="translate(16.264 12.728) rotate(45)" fill="#988bff"/>
        </g>
      </g>
      <g id="Group_16" data-name="Group 16" transform="translate(-4.913 195.444)">
        <path id="Path_3-3" data-name="Path 3" d="M208.776,17l-68.739.17H22.741a11.023,11.023,0,0,0-9.111,4.637L0,41.68" fill="none" stroke="#707070" stroke-linejoin="round" stroke-width="1.5" fill-rule="evenodd"/>
        <g id="Group_3-3" data-name="Group 3" transform="translate(192.603 0.237)">
          <rect id="Rectangle_4-3" data-name="Rectangle 4" width="23" height="23" transform="translate(16.264 0) rotate(45)" fill="#fff" opacity="0.03"/>
          <rect id="Rectangle_5-3" data-name="Rectangle 5" width="11" height="11" transform="translate(16.264 8.485) rotate(45)" fill="#fff" opacity="0.1"/>
          <rect id="Rectangle_6-3" data-name="Rectangle 6" width="5" height="5" transform="translate(16.264 12.728) rotate(45)" fill="#988bff"/>
        </g>
      </g>
    </g>
  </g>
</svg>
